<?xml version="1.0" standalone="no"?>
<!DOCTYPE svg PUBLIC "-//W3C//DTD SVG 20010904//EN"
 "http://www.w3.org/TR/2001/REC-SVG-20010904/DTD/svg10.dtd">
<svg version="1.0" xmlns="http://www.w3.org/2000/svg"
 width="981.000000pt" height="776.000000pt" viewBox="0 0 981.000000 776.000000"
 preserveAspectRatio="xMidYMid meet">

<g transform="translate(0.000000,776.000000) scale(0.100000,-0.100000)"
fill="#FFFFFF" stroke="none">
<path d="M705 7753 c-296 -41 -560 -257 -656 -536 -155 -452 82 -914 541
-1059 l75 -23 4235 0 4235 0 75 23 c226 71 407 224 505 427 55 113 74 184 82
307 27 418 -273 793 -684 857 -52 8 -1219 11 -4225 10 -2284 -1 -4166 -4
-4183 -6z"/>
<path d="M705 4689 c-279 -40 -511 -215 -630 -473 -56 -120 -69 -185 -69 -336
0 -151 13 -216 69 -337 106 -229 298 -389 545 -455 l85 -23 4195 0 4195 0 85
23 c291 77 509 291 592 579 33 112 33 314 0 427 -82 284 -296 496 -587 578
l-80 23 -4170 1 c-2320 1 -4197 -2 -4230 -7z"/>
<path d="M620 1610 c-192 -48 -370 -172 -479 -336 -275 -411 -128 -968 314
-1184 55 -27 132 -57 170 -67 67 -17 277 -18 4275 -18 3998 0 4208 1 4275 18
157 40 323 143 431 269 392 456 157 1178 -430 1318 -80 20 -154 20 -4281 19
-4059 0 -4203 -1 -4275 -19z"/>
</g>
</svg>
